<svg xmlns="http://www.w3.org/2000/svg" width="1920" height="1080"><path d="M-139,-243L173,-236L680,-232Z" fill="#d34635" stroke="#d34635" stroke-width="1.51"/><path d="M425,1321L175,1322L1007,1335Z" fill="#a97b89" stroke="#a97b89" stroke-width="1.51"/><path d="M717,1316L425,1321L1007,1335Z" fill="#a78e9a" stroke="#a78e9a" stroke-width="1.51"/><path d="M680,-232L1072,-230L1214,-230Z" fill="#e29571" stroke="#e29571" stroke-width="1.51"/><path d="M-139,-243L680,-232L1214,-230Z" fill="#dc774c" stroke="#dc774c" stroke-width="1.51"/><path d="M1233,1326L1007,1335L1430,1340Z" fill="#8d94c9" stroke="#8d94c9" stroke-width="1.51"/><path d="M1314,-215L1452,-202L1656,-226Z" fill="#c38281" stroke="#c38281" stroke-width="1.51"/><path d="M1214,-230L1314,-215L1656,-226Z" fill="#c88783" stroke="#c88783" stroke-width="1.51"/><path d="M1214,-230L1656,-226L1740,-227Z" fill="#ba7b7e" stroke="#ba7b7e" stroke-width="1.51"/><path d="M1582,1288L1430,1340L1828,1293Z" fill="#6281bc" stroke="#6281bc" stroke-width="1.51"/><path d="M1828,1293L1430,1340L2051,1337Z" fill="#506eb2" stroke="#506eb2" stroke-width="1.51"/><path d="M2046,1095L1893,1256L2051,1337Z" fill="#4265ac" stroke="#4265ac" stroke-width="1.51"/><path d="M2046,1095L2051,1337L2066,960Z" fill="#4c6fb2" stroke="#4c6fb2" stroke-width="1.51"/><path d="M1903,-71L1904,82L2078,-109Z" fill="#ac6273" stroke="#ac6273" stroke-width="1.51"/><path d="M2066,960L2051,1337L2085,823Z" fill="#5a7bb9" stroke="#5a7bb9" stroke-width="1.51"/><path d="M2091,266L1974,339L2100,404Z" fill="#aa8f98" stroke="#aa8f98" stroke-width="1.51"/><path d="M1917,792L2085,823L2116,642Z" fill="#8b9ecd" stroke="#8b9ecd" stroke-width="1.51"/><path d="M1900,655L1917,792L2116,642Z" fill="#96aad1" stroke="#96aad1" stroke-width="1.51"/><path d="M2085,823L2051,1337L2116,642Z" fill="#6b87c0" stroke="#6b87c0" stroke-width="1.51"/><path d="M2100,404L2064,580L2116,642Z" fill="#a59eb2" stroke="#a59eb2" stroke-width="1.51"/><path d="M2078,-109L1904,82L2118,131Z" fill="#ab6176" stroke="#ab6176" stroke-width="1.51"/><path d="M2091,266L2100,404L2118,131Z" fill="#a97e8b" stroke="#a97e8b" stroke-width="1.51"/><path d="M2100,404L2116,642L2118,131Z" fill="#a68e9c" stroke="#a68e9c" stroke-width="1.51"/><path d="M1214,-230L1740,-227L2133,-231Z" fill="#ab6d77" stroke="#ab6d77" stroke-width="1.51"/><path d="M-139,-243L1214,-230L2133,-231Z" fill="#de927a" stroke="#de927a" stroke-width="1.51"/><path d="M1879,-177L2078,-109L2133,-231Z" fill="#994666" stroke="#994666" stroke-width="1.51"/><path d="M1740,-227L1879,-177L2133,-231Z" fill="#9a546c" stroke="#9a546c" stroke-width="1.51"/><path d="M2118,131L2116,642L2133,-231Z" fill="#a86e80" stroke="#a86e80" stroke-width="1.51"/><path d="M2078,-109L2118,131L2133,-231Z" fill="#a04568" stroke="#a04568" stroke-width="1.51"/><path d="M1990,1027L2046,1095L2066,960Z" fill="#5d82bc" stroke="#5d82bc" stroke-width="1.51"/><path d="M1933,573L2064,580L2100,404Z" fill="#a8a5b2" stroke="#a8a5b2" stroke-width="1.51"/><path d="M2064,580L1900,655L2116,642Z" fill="#9da5c3" stroke="#9da5c3" stroke-width="1.51"/><path d="M1932,203L2091,266L2118,131Z" fill="#ad7c86" stroke="#ad7c86" stroke-width="1.51"/><path d="M1904,82L1932,203L2118,131Z" fill="#b07a83" stroke="#b07a83" stroke-width="1.51"/><path d="M1910,1114L1893,1256L2046,1095Z" fill="#4b78b6" stroke="#4b78b6" stroke-width="1.51"/><path d="M1917,792L2066,960L2085,823Z" fill="#7a98c9" stroke="#7a98c9" stroke-width="1.51"/><path d="M1974,339L1933,573L2100,404Z" fill="#aaa2a9" stroke="#aaa2a9" stroke-width="1.51"/><path d="M1932,203L1974,339L2091,266Z" fill="#ae8d92" stroke="#ae8d92" stroke-width="1.51"/><path d="M1933,573L1900,655L2064,580Z" fill="#a3aec3" stroke="#a3aec3" stroke-width="1.51"/><path d="M1879,-177L1903,-71L2078,-109Z" fill="#a6566c" stroke="#a6566c" stroke-width="1.51"/><path d="M1917,792L1990,1027L2066,960Z" fill="#7094c6" stroke="#7094c6" stroke-width="1.51"/><path d="M1917,792L1831,858L1990,1027Z" fill="#78a4ce" stroke="#78a4ce" stroke-width="1.51"/><path d="M1893,1256L1828,1293L2051,1337Z" fill="#4162ab" stroke="#4162ab" stroke-width="1.51"/><path d="M1990,1027L1910,1114L2046,1095Z" fill="#5681bb" stroke="#5681bb" stroke-width="1.51"/><path d="M1785,348L1933,573L1974,339Z" fill="#b0afad" stroke="#b0afad" stroke-width="1.51"/><path d="M1747,939L1910,1114L1990,1027Z" fill="#6396c6" stroke="#6396c6" stroke-width="1.51"/><path d="M1831,858L1747,939L1990,1027Z" fill="#75a4ce" stroke="#75a4ce" stroke-width="1.51"/><path d="M1932,203L1785,348L1974,339Z" fill="#b39f9b" stroke="#b39f9b" stroke-width="1.51"/><path d="M1903,-71L1751,-66L1904,82Z" fill="#b4727b" stroke="#b4727b" stroke-width="1.51"/><path d="M1824,1166L1893,1256L1910,1114Z" fill="#4d7db9" stroke="#4d7db9" stroke-width="1.51"/><path d="M1900,655L1739,686L1917,792Z" fill="#9bb9da" stroke="#9bb9da" stroke-width="1.51"/><path d="M1904,82L1786,220L1932,203Z" fill="#b78e8c" stroke="#b78e8c" stroke-width="1.51"/><path d="M1786,220L1785,348L1932,203Z" fill="#b9a299" stroke="#b9a299" stroke-width="1.51"/><path d="M1758,592L1900,655L1933,573Z" fill="#a8bcca" stroke="#a8bcca" stroke-width="1.51"/><path d="M1785,348L1758,592L1933,573Z" fill="#b4c0bc" stroke="#b4c0bc" stroke-width="1.51"/><path d="M1752,100L1786,220L1904,82Z" fill="#bc908c" stroke="#bc908c" stroke-width="1.51"/><path d="M1751,-66L1752,100L1904,82Z" fill="#bd8183" stroke="#bd8183" stroke-width="1.51"/><path d="M1747,939L1824,1166L1910,1114Z" fill="#6195c5" stroke="#6195c5" stroke-width="1.51"/><path d="M1739,686L1831,858L1917,792Z" fill="#93b7d8" stroke="#93b7d8" stroke-width="1.51"/><path d="M1879,-177L1751,-66L1903,-71Z" fill="#b06772" stroke="#b06772" stroke-width="1.51"/><path d="M1747,939L1672,1092L1824,1166Z" fill="#6a9fca" stroke="#6a9fca" stroke-width="1.51"/><path d="M1758,592L1739,686L1900,655Z" fill="#aac3d4" stroke="#aac3d4" stroke-width="1.51"/><path d="M1824,1166L1828,1293L1893,1256Z" fill="#4b75b5" stroke="#4b75b5" stroke-width="1.51"/><path d="M1740,-227L1751,-66L1879,-177Z" fill="#ae6873" stroke="#ae6873" stroke-width="1.51"/><path d="M1751,-66L1677,37L1752,100Z" fill="#c28885" stroke="#c28885" stroke-width="1.51"/><path d="M1672,336L1758,592L1785,348Z" fill="#bdc3b6" stroke="#bdc3b6" stroke-width="1.51"/><path d="M1672,1092L1582,1288L1824,1166Z" fill="#5f92c3" stroke="#5f92c3" stroke-width="1.51"/><path d="M1824,1166L1582,1288L1828,1293Z" fill="#567fba" stroke="#567fba" stroke-width="1.51"/><path d="M1739,686L1650,705L1831,858Z" fill="#9fc5df" stroke="#9fc5df" stroke-width="1.51"/><path d="M1589,823L1747,939L1831,858Z" fill="#8cbdda" stroke="#8cbdda" stroke-width="1.51"/><path d="M1650,705L1589,823L1831,858Z" fill="#9cc8e0" stroke="#9cc8e0" stroke-width="1.51"/><path d="M1740,-227L1656,-226L1751,-66Z" fill="#b27077" stroke="#b27077" stroke-width="1.51"/><path d="M1672,336L1599,591L1758,592Z" fill="#c1d3c4" stroke="#c1d3c4" stroke-width="1.51"/><path d="M1752,100L1590,219L1786,220Z" fill="#c5a596" stroke="#c5a596" stroke-width="1.51"/><path d="M1590,219L1672,336L1786,220Z" fill="#c6b4a2" stroke="#c6b4a2" stroke-width="1.51"/><path d="M1672,336L1785,348L1786,220Z" fill="#c0b3a4" stroke="#c0b3a4" stroke-width="1.51"/><path d="M1533,406L1599,591L1672,336Z" fill="#cad3c0" stroke="#cad3c0" stroke-width="1.51"/><path d="M1582,983L1672,1092L1747,939Z" fill="#7bb2d4" stroke="#7bb2d4" stroke-width="1.51"/><path d="M1656,-226L1612,-61L1751,-66Z" fill="#bf7a7a" stroke="#bf7a7a" stroke-width="1.51"/><path d="M1677,37L1590,219L1752,100Z" fill="#c99e92" stroke="#c99e92" stroke-width="1.51"/><path d="M1650,705L1739,686L1758,592Z" fill="#aeccdb" stroke="#aeccdb" stroke-width="1.51"/><path d="M1599,591L1650,705L1758,592Z" fill="#b7d3d8" stroke="#b7d3d8" stroke-width="1.51"/><path d="M1589,823L1582,983L1747,939Z" fill="#8dc0dc" stroke="#8dc0dc" stroke-width="1.51"/><path d="M1612,-61L1677,37L1751,-66Z" fill="#c38682" stroke="#c38682" stroke-width="1.51"/><path d="M1492,1174L1582,1288L1672,1092Z" fill="#6c9cc9" stroke="#6c9cc9" stroke-width="1.51"/><path d="M1612,-61L1490,139L1677,37Z" fill="#d0988d" stroke="#d0988d" stroke-width="1.51"/><path d="M1490,139L1590,219L1677,37Z" fill="#d2a896" stroke="#d2a896" stroke-width="1.51"/><path d="M1452,-202L1612,-61L1656,-226Z" fill="#c27e7d" stroke="#c27e7d" stroke-width="1.51"/><path d="M1590,219L1533,406L1672,336Z" fill="#cdc6ae" stroke="#cdc6ae" stroke-width="1.51"/><path d="M1582,983L1492,1174L1672,1092Z" fill="#79add2" stroke="#79add2" stroke-width="1.51"/><path d="M1524,957L1582,983L1589,823Z" fill="#95c6df" stroke="#95c6df" stroke-width="1.51"/><path d="M1533,406L1471,563L1599,591Z" fill="#cfe1cd" stroke="#cfe1cd" stroke-width="1.51"/><path d="M1599,591L1449,656L1650,705Z" fill="#bfdce1" stroke="#bfdce1" stroke-width="1.51"/><path d="M1449,656L1589,823L1650,705Z" fill="#b5d8e9" stroke="#b5d8e9" stroke-width="1.51"/><path d="M1524,957L1492,1174L1582,983Z" fill="#85bad8" stroke="#85bad8" stroke-width="1.51"/><path d="M1449,656L1436,813L1589,823Z" fill="#b7dceb" stroke="#b7dceb" stroke-width="1.51"/><path d="M1437,253L1533,406L1590,219Z" fill="#d5c9ae" stroke="#d5c9ae" stroke-width="1.51"/><path d="M1428,-90L1490,139L1612,-61Z" fill="#d6998c" stroke="#d6998c" stroke-width="1.51"/><path d="M1452,-202L1428,-90L1612,-61Z" fill="#d08981" stroke="#d08981" stroke-width="1.51"/><path d="M1436,813L1524,957L1589,823Z" fill="#a4d2e5" stroke="#a4d2e5" stroke-width="1.51"/><path d="M1471,563L1449,656L1599,591Z" fill="#cbe3dc" stroke="#cbe3dc" stroke-width="1.51"/><path d="M1490,139L1437,253L1590,219Z" fill="#d9bda2" stroke="#d9bda2" stroke-width="1.51"/><path d="M1492,1174L1430,1340L1582,1288Z" fill="#7193c5" stroke="#7193c5" stroke-width="1.51"/><path d="M1428,-90L1302,111L1490,139Z" fill="#e4aa96" stroke="#e4aa96" stroke-width="1.51"/><path d="M1436,813L1357,884L1524,957Z" fill="#a9d7e8" stroke="#a9d7e8" stroke-width="1.51"/><path d="M1325,1113L1492,1174L1524,957Z" fill="#89bad9" stroke="#89bad9" stroke-width="1.51"/><path d="M1339,940L1325,1113L1524,957Z" fill="#9ac9e1" stroke="#9ac9e1" stroke-width="1.51"/><path d="M1339,399L1471,563L1533,406Z" fill="#d9e3c8" stroke="#d9e3c8" stroke-width="1.51"/><path d="M1437,253L1339,399L1533,406Z" fill="#dcd9ba" stroke="#dcd9ba" stroke-width="1.51"/><path d="M1357,884L1339,940L1524,957Z" fill="#a6d3e6" stroke="#a6d3e6" stroke-width="1.51"/><path d="M1333,-88L1302,111L1428,-90Z" fill="#e3a190" stroke="#e3a190" stroke-width="1.51"/><path d="M1339,399L1366,567L1471,563Z" fill="#deebd2" stroke="#deebd2" stroke-width="1.51"/><path d="M1309,219L1437,253L1490,139Z" fill="#e2c4a6" stroke="#e2c4a6" stroke-width="1.51"/><path d="M1302,111L1309,219L1490,139Z" fill="#e7bea2" stroke="#e7bea2" stroke-width="1.51"/><path d="M1279,1296L1430,1340L1492,1174Z" fill="#7d99c9" stroke="#7d99c9" stroke-width="1.51"/><path d="M1325,1113L1279,1296L1492,1174Z" fill="#84aad2" stroke="#84aad2" stroke-width="1.51"/><path d="M1291,643L1436,813L1449,656Z" fill="#cbe8f2" stroke="#cbe8f2" stroke-width="1.51"/><path d="M1366,567L1449,656L1471,563Z" fill="#d4eade" stroke="#d4eade" stroke-width="1.51"/><path d="M1279,1296L1233,1326L1430,1340Z" fill="#8493c7" stroke="#8493c7" stroke-width="1.51"/><path d="M1333,-88L1428,-90L1452,-202Z" fill="#d88f85" stroke="#d88f85" stroke-width="1.51"/><path d="M1314,-215L1333,-88L1452,-202Z" fill="#d48d85" stroke="#d48d85" stroke-width="1.51"/><path d="M1309,219L1339,399L1437,253Z" fill="#e5d3b3" stroke="#e5d3b3" stroke-width="1.51"/><path d="M1366,567L1291,643L1449,656Z" fill="#d7ede5" stroke="#d7ede5" stroke-width="1.51"/><path d="M1291,643L1357,884L1436,813Z" fill="#c3e4f0" stroke="#c3e4f0" stroke-width="1.51"/><path d="M1291,643L1214,684L1357,884Z" fill="#d2ebf4" stroke="#d2ebf4" stroke-width="1.51"/><path d="M1210,-17L1302,111L1333,-88Z" fill="#eca894" stroke="#eca894" stroke-width="1.51"/><path d="M1147,408L1138,555L1339,399Z" fill="#f1f0cf" stroke="#f1f0cf" stroke-width="1.51"/><path d="M1309,219L1186,241L1339,399Z" fill="#edd8b5" stroke="#edd8b5" stroke-width="1.51"/><path d="M1179,1016L1325,1113L1339,940Z" fill="#a4cde3" stroke="#a4cde3" stroke-width="1.51"/><path d="M1214,684L1195,859L1357,884Z" fill="#cae8f2" stroke="#cae8f2" stroke-width="1.51"/><path d="M1339,399L1138,555L1366,567Z" fill="#e9f1d5" stroke="#e9f1d5" stroke-width="1.51"/><path d="M1138,555L1291,643L1366,567Z" fill="#e6f3e2" stroke="#e6f3e2" stroke-width="1.51"/><path d="M1210,-17L1218,92L1302,111Z" fill="#f2b39b" stroke="#f2b39b" stroke-width="1.51"/><path d="M1195,859L1339,940L1357,884Z" fill="#b7ddeb" stroke="#b7ddeb" stroke-width="1.51"/><path d="M1140,1143L1279,1296L1325,1113Z" fill="#93b2d6" stroke="#93b2d6" stroke-width="1.51"/><path d="M1314,-215L1214,-230L1333,-88Z" fill="#da9087" stroke="#da9087" stroke-width="1.51"/><path d="M1186,241L1147,408L1339,399Z" fill="#f1e4c0" stroke="#f1e4c0" stroke-width="1.51"/><path d="M1195,859L1179,1016L1339,940Z" fill="#b7dbea" stroke="#b7dbea" stroke-width="1.51"/><path d="M1214,-230L1210,-17L1333,-88Z" fill="#e8988a" stroke="#e8988a" stroke-width="1.51"/><path d="M1302,111L1218,92L1309,219Z" fill="#efc0a3" stroke="#efc0a3" stroke-width="1.51"/><path d="M1179,1016L1140,1143L1325,1113Z" fill="#a3c5df" stroke="#a3c5df" stroke-width="1.51"/><path d="M1218,92L1186,241L1309,219Z" fill="#f3caa8" stroke="#f3caa8" stroke-width="1.51"/><path d="M1140,1143L1233,1326L1279,1296Z" fill="#92a5d1" stroke="#92a5d1" stroke-width="1.51"/><path d="M1138,555L1214,684L1291,643Z" fill="#e7f5ea" stroke="#e7f5ea" stroke-width="1.51"/><path d="M1078,976L1179,1016L1195,859Z" fill="#bddce5" stroke="#bddce5" stroke-width="1.51"/><path d="M1072,-230L993,-42L1210,-17Z" fill="#f1a081" stroke="#f1a081" stroke-width="1.51"/><path d="M1084,854L1195,859L1214,684Z" fill="#d4ecf0" stroke="#d4ecf0" stroke-width="1.51"/><path d="M1039,708L1084,854L1214,684Z" fill="#e0f1ec" stroke="#e0f1ec" stroke-width="1.51"/><path d="M1072,-230L1210,-17L1214,-230Z" fill="#e69786" stroke="#e69786" stroke-width="1.51"/><path d="M1210,-17L1086,66L1218,92Z" fill="#f7b398" stroke="#f7b398" stroke-width="1.51"/><path d="M1086,66L1186,241L1218,92Z" fill="#f9c3a0" stroke="#f9c3a0" stroke-width="1.51"/><path d="M1140,1143L1007,1335L1233,1326Z" fill="#9aa5c8" stroke="#9aa5c8" stroke-width="1.51"/><path d="M1086,66L1047,224L1186,241Z" fill="#fbcd9e" stroke="#fbcd9e" stroke-width="1.51"/><path d="M1084,854L1078,976L1195,859Z" fill="#c8e4e5" stroke="#c8e4e5" stroke-width="1.51"/><path d="M1138,555L1039,708L1214,684Z" fill="#ebf6e7" stroke="#ebf6e7" stroke-width="1.51"/><path d="M1047,224L1147,408L1186,241Z" fill="#f8dfaf" stroke="#f8dfaf" stroke-width="1.51"/><path d="M993,-42L1086,66L1210,-17Z" fill="#f8ae8b" stroke="#f8ae8b" stroke-width="1.51"/><path d="M1078,976L1140,1143L1179,1016Z" fill="#b0cfdc" stroke="#b0cfdc" stroke-width="1.51"/><path d="M1019,496L1138,555L1147,408Z" fill="#f7f6c9" stroke="#f7f6c9" stroke-width="1.51"/><path d="M680,-232L863,-157L1072,-230Z" fill="#e59266" stroke="#e59266" stroke-width="1.51"/><path d="M1019,496L1039,708L1138,555Z" fill="#f5fbd4" stroke="#f5fbd4" stroke-width="1.51"/><path d="M1078,976L994,1117L1140,1143Z" fill="#b1cad2" stroke="#b1cad2" stroke-width="1.51"/><path d="M994,1117L1007,1335L1140,1143Z" fill="#a5b6c5" stroke="#a5b6c5" stroke-width="1.51"/><path d="M1047,224L990,411L1147,408Z" fill="#fae9af" stroke="#fae9af" stroke-width="1.51"/><path d="M990,411L1019,496L1147,408Z" fill="#fbf3bc" stroke="#fbf3bc" stroke-width="1.51"/><path d="M173,-236L404,-187L680,-232Z" fill="#db643f" stroke="#db643f" stroke-width="1.51"/><path d="M863,-157L993,-42L1072,-230Z" fill="#f09d71" stroke="#f09d71" stroke-width="1.51"/><path d="M1039,708L889,732L1084,854Z" fill="#e5f3df" stroke="#e5f3df" stroke-width="1.51"/><path d="M889,732L860,794L1084,854Z" fill="#e4f1d7" stroke="#e4f1d7" stroke-width="1.51"/><path d="M888,966L1078,976L1084,854Z" fill="#cbe2d7" stroke="#cbe2d7" stroke-width="1.51"/><path d="M850,117L1047,224L1086,66Z" fill="#ffc88c" stroke="#ffc88c" stroke-width="1.51"/><path d="M993,-42L850,117L1086,66Z" fill="#ffb881" stroke="#ffb881" stroke-width="1.51"/><path d="M888,966L994,1117L1078,976Z" fill="#c0d7cd" stroke="#c0d7cd" stroke-width="1.51"/><path d="M860,794L888,966L1084,854Z" fill="#d8ebd3" stroke="#d8ebd3" stroke-width="1.51"/><path d="M861,500L889,732L1019,496Z" fill="#fcfbc2" stroke="#fcfbc2" stroke-width="1.51"/><path d="M1019,496L889,732L1039,708Z" fill="#f5fad4" stroke="#f5fad4" stroke-width="1.51"/><path d="M994,1117L850,1189L1007,1335Z" fill="#abb4b9" stroke="#abb4b9" stroke-width="1.51"/><path d="M898,399L990,411L1047,224Z" fill="#ffeaa5" stroke="#ffeaa5" stroke-width="1.51"/><path d="M850,1189L834,1256L1007,1335Z" fill="#a9a6b1" stroke="#a9a6b1" stroke-width="1.51"/><path d="M851,197L898,399L1047,224Z" fill="#ffde96" stroke="#ffde96" stroke-width="1.51"/><path d="M850,117L851,197L1047,224Z" fill="#ffce88" stroke="#ffce88" stroke-width="1.51"/><path d="M834,1256L717,1316L1007,1335Z" fill="#a79ba9" stroke="#a79ba9" stroke-width="1.51"/><path d="M863,-157L870,-72L993,-42Z" fill="#f6a16d" stroke="#f6a16d" stroke-width="1.51"/><path d="M990,411L861,500L1019,496Z" fill="#fff8b4" stroke="#fff8b4" stroke-width="1.51"/><path d="M898,399L861,500L990,411Z" fill="#fff2ab" stroke="#fff2ab" stroke-width="1.51"/><path d="M870,-72L850,117L993,-42Z" fill="#fcae75" stroke="#fcae75" stroke-width="1.51"/><path d="M888,966L850,1189L994,1117Z" fill="#b9c8c0" stroke="#b9c8c0" stroke-width="1.51"/><path d="M404,-187L637,-213L680,-232Z" fill="#df784b" stroke="#df784b" stroke-width="1.51"/><path d="M775,66L850,117L870,-72Z" fill="#feae72" stroke="#feae72" stroke-width="1.51"/><path d="M751,1110L850,1189L888,966Z" fill="#bbc3b8" stroke="#bbc3b8" stroke-width="1.51"/><path d="M735,1023L751,1110L888,966Z" fill="#c2cbb9" stroke="#c2cbb9" stroke-width="1.51"/><path d="M860,794L773,816L888,966Z" fill="#dce5c9" stroke="#dce5c9" stroke-width="1.51"/><path d="M861,500L765,668L889,732Z" fill="#f8f3c4" stroke="#f8f3c4" stroke-width="1.51"/><path d="M851,197L781,224L898,399Z" fill="#ffd98d" stroke="#ffd98d" stroke-width="1.51"/><path d="M721,430L861,500L898,399Z" fill="#ffeda4" stroke="#ffeda4" stroke-width="1.51"/><path d="M781,224L721,430L898,399Z" fill="#ffe194" stroke="#ffe194" stroke-width="1.51"/><path d="M773,816L735,1023L888,966Z" fill="#d1d8c1" stroke="#d1d8c1" stroke-width="1.51"/><path d="M765,668L860,794L889,732Z" fill="#eeefcf" stroke="#eeefcf" stroke-width="1.51"/><path d="M765,668L773,816L860,794Z" fill="#ebeac9" stroke="#ebeac9" stroke-width="1.51"/><path d="M679,561L765,668L861,500Z" fill="#fdf1b2" stroke="#fdf1b2" stroke-width="1.51"/><path d="M863,-157L700,-65L870,-72Z" fill="#f49a64" stroke="#f49a64" stroke-width="1.51"/><path d="M700,-65L775,66L870,-72Z" fill="#f9a268" stroke="#f9a268" stroke-width="1.51"/><path d="M850,117L781,224L851,197Z" fill="#ffc980" stroke="#ffc980" stroke-width="1.51"/><path d="M680,-232L700,-65L863,-157Z" fill="#eb8f5b" stroke="#eb8f5b" stroke-width="1.51"/><path d="M721,430L679,561L861,500Z" fill="#ffeda5" stroke="#ffeda5" stroke-width="1.51"/><path d="M775,66L781,224L850,117Z" fill="#ffbf79" stroke="#ffbf79" stroke-width="1.51"/><path d="M751,1110L834,1256L850,1189Z" fill="#afb1af" stroke="#afb1af" stroke-width="1.51"/><path d="M751,1110L717,1316L834,1256Z" fill="#ada5a7" stroke="#ada5a7" stroke-width="1.51"/><path d="M569,1265L425,1321L717,1316Z" fill="#aa848e" stroke="#aa848e" stroke-width="1.51"/><path d="M599,805L597,1034L735,1023Z" fill="#d1c9b0" stroke="#d1c9b0" stroke-width="1.51"/><path d="M604,1125L717,1316L751,1110Z" fill="#b1a8a4" stroke="#b1a8a4" stroke-width="1.51"/><path d="M765,668L599,805L773,816Z" fill="#ebe4c1" stroke="#ebe4c1" stroke-width="1.51"/><path d="M599,805L735,1023L773,816Z" fill="#d9d9ba" stroke="#d9d9ba" stroke-width="1.51"/><path d="M535,227L721,430L781,224Z" fill="#fed080" stroke="#fed080" stroke-width="1.51"/><path d="M587,138L535,227L781,224Z" fill="#febc6e" stroke="#febc6e" stroke-width="1.51"/><path d="M775,66L587,138L781,224Z" fill="#feba71" stroke="#feba71" stroke-width="1.51"/><path d="M173,-236L239,-207L404,-187Z" fill="#d94e36" stroke="#d94e36" stroke-width="1.51"/><path d="M680,-232L637,-213L700,-65Z" fill="#e88654" stroke="#e88654" stroke-width="1.51"/><path d="M604,1125L569,1265L717,1316Z" fill="#ae9799" stroke="#ae9799" stroke-width="1.51"/><path d="M700,-65L587,138L775,66Z" fill="#fca565" stroke="#fca565" stroke-width="1.51"/><path d="M535,227L543,431L721,430Z" fill="#fed282" stroke="#fed282" stroke-width="1.51"/><path d="M679,561L532,655L765,668Z" fill="#f9e5b1" stroke="#f9e5b1" stroke-width="1.51"/><path d="M532,655L599,805L765,668Z" fill="#f4e0bc" stroke="#f4e0bc" stroke-width="1.51"/><path d="M597,1034L604,1125L735,1023Z" fill="#c1baa9" stroke="#c1baa9" stroke-width="1.51"/><path d="M735,1023L604,1125L751,1110Z" fill="#bdbaac" stroke="#bdbaac" stroke-width="1.51"/><path d="M559,575L532,655L679,561Z" fill="#fde0a4" stroke="#fde0a4" stroke-width="1.51"/><path d="M637,-213L561,-91L700,-65Z" fill="#ef8651" stroke="#ef8651" stroke-width="1.51"/><path d="M561,-91L587,138L700,-65Z" fill="#f89659" stroke="#f89659" stroke-width="1.51"/><path d="M543,431L679,561L721,430Z" fill="#ffe297" stroke="#ffe297" stroke-width="1.51"/><path d="M543,431L559,575L679,561Z" fill="#ffe198" stroke="#ffe198" stroke-width="1.51"/><path d="M561,-91L478,124L587,138Z" fill="#fb9859" stroke="#fb9859" stroke-width="1.51"/><path d="M390,995L597,1034L599,805Z" fill="#d4bfa5" stroke="#d4bfa5" stroke-width="1.51"/><path d="M399,827L390,995L599,805Z" fill="#dfc1a4" stroke="#dfc1a4" stroke-width="1.51"/><path d="M404,-187L561,-91L637,-213Z" fill="#e77747" stroke="#e77747" stroke-width="1.51"/><path d="M535,227L460,255L543,431Z" fill="#ffc071" stroke="#ffc071" stroke-width="1.51"/><path d="M460,255L479,419L543,431Z" fill="#fec879" stroke="#fec879" stroke-width="1.51"/><path d="M532,655L402,711L599,805Z" fill="#f3d2ae" stroke="#f3d2ae" stroke-width="1.51"/><path d="M402,711L399,827L599,805Z" fill="#ecc9a8" stroke="#ecc9a8" stroke-width="1.51"/><path d="M385,1185L569,1265L604,1125Z" fill="#b39692" stroke="#b39692" stroke-width="1.51"/><path d="M597,1034L390,995L604,1125Z" fill="#c5b09e" stroke="#c5b09e" stroke-width="1.51"/><path d="M390,995L385,1185L604,1125Z" fill="#bfa094" stroke="#bfa094" stroke-width="1.51"/><path d="M412,-109L478,124L561,-91Z" fill="#f4844c" stroke="#f4844c" stroke-width="1.51"/><path d="M543,431L454,586L559,575Z" fill="#ffda92" stroke="#ffda92" stroke-width="1.51"/><path d="M404,-187L412,-109L561,-91Z" fill="#ea7241" stroke="#ea7241" stroke-width="1.51"/><path d="M478,124L535,227L587,138Z" fill="#fdab61" stroke="#fdab61" stroke-width="1.51"/><path d="M479,419L454,586L543,431Z" fill="#ffd288" stroke="#ffd288" stroke-width="1.51"/><path d="M385,1185L425,1321L569,1265Z" fill="#af8288" stroke="#af8288" stroke-width="1.51"/><path d="M454,586L532,655L559,575Z" fill="#fdd79f" stroke="#fdd79f" stroke-width="1.51"/><path d="M-16,1285L-221,1318L175,1322Z" fill="#9c4165" stroke="#9c4165" stroke-width="1.51"/><path d="M478,124L460,255L535,227Z" fill="#fdae61" stroke="#fdae61" stroke-width="1.51"/><path d="M454,586L402,711L532,655Z" fill="#fad0a1" stroke="#fad0a1" stroke-width="1.51"/><path d="M277,-73L333,128L412,-109Z" fill="#f17143" stroke="#f17143" stroke-width="1.51"/><path d="M340,232L281,375L460,255Z" fill="#fcab64" stroke="#fcab64" stroke-width="1.51"/><path d="M412,-109L333,128L478,124Z" fill="#f8854d" stroke="#f8854d" stroke-width="1.51"/><path d="M340,232L460,255L478,124Z" fill="#fda65d" stroke="#fda65d" stroke-width="1.51"/><path d="M333,128L340,232L478,124Z" fill="#fb9956" stroke="#fb9956" stroke-width="1.51"/><path d="M298,494L454,586L479,419Z" fill="#ffca85" stroke="#ffca85" stroke-width="1.51"/><path d="M460,255L281,375L479,419Z" fill="#feba70" stroke="#feba70" stroke-width="1.51"/><path d="M281,375L298,494L479,419Z" fill="#ffbc77" stroke="#ffbc77" stroke-width="1.51"/><path d="M279,1148L385,1185L390,995Z" fill="#bf918c" stroke="#bf918c" stroke-width="1.51"/><path d="M298,494L228,669L402,711Z" fill="#fcbe92" stroke="#fcbe92" stroke-width="1.51"/><path d="M298,494L402,711L454,586Z" fill="#fec893" stroke="#fec893" stroke-width="1.51"/><path d="M244,1032L279,1148L390,995Z" fill="#c5948d" stroke="#c5948d" stroke-width="1.51"/><path d="M293,840L390,995L399,827Z" fill="#ddb39c" stroke="#ddb39c" stroke-width="1.51"/><path d="M385,1185L228,1255L425,1321Z" fill="#af7480" stroke="#af7480" stroke-width="1.51"/><path d="M228,1255L175,1322L425,1321Z" fill="#ab6277" stroke="#ab6277" stroke-width="1.51"/><path d="M293,840L399,827L402,711Z" fill="#ebbba0" stroke="#ebbba0" stroke-width="1.51"/><path d="M404,-187L277,-73L412,-109Z" fill="#e9653c" stroke="#e9653c" stroke-width="1.51"/><path d="M228,669L293,840L402,711Z" fill="#f2b89e" stroke="#f2b89e" stroke-width="1.51"/><path d="M239,-207L277,-73L404,-187Z" fill="#e25938" stroke="#e25938" stroke-width="1.51"/><path d="M293,840L244,1032L390,995Z" fill="#d4a494" stroke="#d4a494" stroke-width="1.51"/><path d="M279,1148L228,1255L385,1185Z" fill="#b37b82" stroke="#b37b82" stroke-width="1.51"/><path d="M277,-73L191,97L333,128Z" fill="#f57245" stroke="#f57245" stroke-width="1.51"/><path d="M180,272L281,375L340,232Z" fill="#fb9f5e" stroke="#fb9f5e" stroke-width="1.51"/><path d="M333,128L191,97L340,232Z" fill="#f98a4f" stroke="#f98a4f" stroke-width="1.51"/><path d="M191,97L180,272L340,232Z" fill="#f98c51" stroke="#f98c51" stroke-width="1.51"/><path d="M239,-207L153,-107L277,-73Z" fill="#e34e34" stroke="#e34e34" stroke-width="1.51"/><path d="M153,-107L191,97L277,-73Z" fill="#ec5e3a" stroke="#ec5e3a" stroke-width="1.51"/><path d="M244,1032L167,1104L279,1148Z" fill="#c08585" stroke="#c08585" stroke-width="1.51"/><path d="M112,1027L244,1032L293,840Z" fill="#d1978c" stroke="#d1978c" stroke-width="1.51"/><path d="M135,785L112,1027L293,840Z" fill="#db9e8f" stroke="#db9e8f" stroke-width="1.51"/><path d="M228,669L135,785L293,840Z" fill="#eeac97" stroke="#eeac97" stroke-width="1.51"/><path d="M281,375L101,370L298,494Z" fill="#fdab6d" stroke="#fdab6d" stroke-width="1.51"/><path d="M101,370L113,563L298,494Z" fill="#fcab72" stroke="#fcab72" stroke-width="1.51"/><path d="M113,563L228,669L298,494Z" fill="#fdb483" stroke="#fdb483" stroke-width="1.51"/><path d="M133,722L135,785L228,669Z" fill="#f0a995" stroke="#f0a995" stroke-width="1.51"/><path d="M167,1104L228,1255L279,1148Z" fill="#b6777e" stroke="#b6777e" stroke-width="1.51"/><path d="M180,272L101,370L281,375Z" fill="#f99e60" stroke="#f99e60" stroke-width="1.51"/><path d="M153,-107L31,38L191,97Z" fill="#ea5a39" stroke="#ea5a39" stroke-width="1.51"/><path d="M173,-236L153,-107L239,-207Z" fill="#d94432" stroke="#d94432" stroke-width="1.51"/><path d="M112,1027L167,1104L244,1032Z" fill="#c38684" stroke="#c38684" stroke-width="1.51"/><path d="M167,1104L-16,1285L175,1322Z" fill="#aa5e71" stroke="#aa5e71" stroke-width="1.51"/><path d="M167,1104L175,1322L228,1255Z" fill="#ae6978" stroke="#ae6978" stroke-width="1.51"/><path d="M113,563L133,722L228,669Z" fill="#f6ac8c" stroke="#f6ac8c" stroke-width="1.51"/><path d="M-17,838L112,1027L135,785Z" fill="#d79488" stroke="#d79488" stroke-width="1.51"/><path d="M16,1091L-16,1285L167,1104Z" fill="#b06874" stroke="#b06874" stroke-width="1.51"/><path d="M-139,-243L-48,-155L173,-236Z" fill="#c82527" stroke="#c82527" stroke-width="1.51"/><path d="M37,280L180,272L191,97Z" fill="#f4854c" stroke="#f4854c" stroke-width="1.51"/><path d="M31,38L37,280L191,97Z" fill="#ef7042" stroke="#ef7042" stroke-width="1.51"/><path d="M113,563L11,635L133,722Z" fill="#f4a586" stroke="#f4a586" stroke-width="1.51"/><path d="M-48,-155L153,-107L173,-236Z" fill="#d5392c" stroke="#d5392c" stroke-width="1.51"/><path d="M37,280L101,370L180,272Z" fill="#f59157" stroke="#f59157" stroke-width="1.51"/><path d="M101,370L-23,507L113,563Z" fill="#f6a16b" stroke="#f6a16b" stroke-width="1.51"/><path d="M112,1027L16,1091L167,1104Z" fill="#bd7c7d" stroke="#bd7c7d" stroke-width="1.51"/><path d="M-17,838L-56,998L112,1027Z" fill="#ca847f" stroke="#ca847f" stroke-width="1.51"/><path d="M-47,-61L31,38L153,-107Z" fill="#e14730" stroke="#e14730" stroke-width="1.51"/><path d="M-48,-155L-47,-61L153,-107Z" fill="#d93629" stroke="#d93629" stroke-width="1.51"/><path d="M133,722L-17,838L135,785Z" fill="#e59d8d" stroke="#e59d8d" stroke-width="1.51"/><path d="M11,635L-17,838L133,722Z" fill="#ea9c8c" stroke="#ea9c8c" stroke-width="1.51"/><path d="M-61,387L-23,507L101,370Z" fill="#f2955f" stroke="#f2955f" stroke-width="1.51"/><path d="M-56,998L16,1091L112,1027Z" fill="#be7b7b" stroke="#be7b7b" stroke-width="1.51"/><path d="M-23,507L11,635L113,563Z" fill="#f5a276" stroke="#f5a276" stroke-width="1.51"/><path d="M37,280L-61,387L101,370Z" fill="#f18e57" stroke="#f18e57" stroke-width="1.51"/><path d="M-198,683L-130,851L-17,838Z" fill="#d38c86" stroke="#d38c86" stroke-width="1.51"/><path d="M-198,683L-17,838L11,635Z" fill="#e29489" stroke="#e29489" stroke-width="1.51"/><path d="M-205,1177L-16,1285L16,1091Z" fill="#a35a6e" stroke="#a35a6e" stroke-width="1.51"/><path d="M-204,92L-114,294L31,38Z" fill="#df613d" stroke="#df613d" stroke-width="1.51"/><path d="M31,38L-114,294L37,280Z" fill="#ea7442" stroke="#ea7442" stroke-width="1.51"/><path d="M-114,294L-61,387L37,280Z" fill="#ea8551" stroke="#ea8551" stroke-width="1.51"/><path d="M-114,294L-113,337L-61,387Z" fill="#e58454" stroke="#e58454" stroke-width="1.51"/><path d="M-47,-61L-204,92L31,38Z" fill="#dc4933" stroke="#dc4933" stroke-width="1.51"/><path d="M-130,851L-56,998L-17,838Z" fill="#cb8681" stroke="#cb8681" stroke-width="1.51"/><path d="M-23,507L-150,564L11,635Z" fill="#ed9b73" stroke="#ed9b73" stroke-width="1.51"/><path d="M-56,998L-205,1177L16,1091Z" fill="#ae6a75" stroke="#ae6a75" stroke-width="1.51"/><path d="M-150,564L-198,683L11,635Z" fill="#e3957c" stroke="#e3957c" stroke-width="1.51"/><path d="M-212,1022L-205,1177L-56,998Z" fill="#a96976" stroke="#a96976" stroke-width="1.51"/><path d="M-205,1177L-221,1318L-16,1285Z" fill="#934567" stroke="#934567" stroke-width="1.51"/><path d="M-61,387L-150,564L-23,507Z" fill="#eb9667" stroke="#eb9667" stroke-width="1.51"/><path d="M-113,337L-150,564L-61,387Z" fill="#e68e5f" stroke="#e68e5f" stroke-width="1.51"/><path d="M-130,851L-212,1022L-56,998Z" fill="#ba7b7d" stroke="#ba7b7d" stroke-width="1.51"/><path d="M-139,-243L-150,-113L-48,-155Z" fill="#c32227" stroke="#c32227" stroke-width="1.51"/><path d="M-48,-155L-150,-113L-47,-61Z" fill="#cf2c28" stroke="#cf2c28" stroke-width="1.51"/><path d="M-150,-113L-204,92L-47,-61Z" fill="#d13b2e" stroke="#d13b2e" stroke-width="1.51"/><path d="M-114,294L-204,92L-113,337Z" fill="#de7147" stroke="#de7147" stroke-width="1.51"/><path d="M-204,92L-150,564L-113,337Z" fill="#de7f52" stroke="#de7f52" stroke-width="1.51"/><path d="M-204,92L-198,683L-150,564Z" fill="#de8a61" stroke="#de8a61" stroke-width="1.51"/><path d="M-198,683L-212,1022L-130,851Z" fill="#c48483" stroke="#c48483" stroke-width="1.51"/><path d="M-204,92L-150,-113L-139,-243Z" fill="#c92b2a" stroke="#c92b2a" stroke-width="1.51"/><path d="M-204,92L-212,1022L-198,683Z" fill="#db9077" stroke="#db9077" stroke-width="1.51"/><path d="M-212,1022L-221,1318L-205,1177Z" fill="#95546c" stroke="#95546c" stroke-width="1.51"/></svg>